# xmcd
# Copyright (C) 1995-1998 Ti Kan
#
# Track frame offsets:
#       150
#       15315
#       36322
#       54507
#       69145
#       90022
#       108730
#       112427
#       131780
#       149197
#       168142
#       184702
#       204790
#
# Disc length: 2944 seconds
#
# Revision: 0
# Processed by: cddbd v1.5.2PL0 Copyright (c) Steve Scherf et al.
# Submitted via: CD-Import v1.0
#
DISCID=b10b7e0d
DTITLE=Modern Day Heroes - The Sun Never Sets In The Land Of Cool
DYEAR=2009
DGENRE=
TTITLE0=I Need A Revolution
TTITLE1=You Made My Day
TTITLE2=Bad News
TTITLE3=I Want You
TTITLE4=I'm Gone
TTITLE5=Won't Be Getting Easier
TTITLE6=When The Shit Hits The Fan
TTITLE7=At The Wrong Place
TTITLE8=The Bluest Sky
TTITLE9=Save My Love
TTITLE10=Get A Little More
TTITLE11=Solitude
TTITLE12=You Made My Day (Radio Version)
EXTD=
EXTT0=
EXTT1=
EXTT2=
EXTT3=
EXTT4=
EXTT5=
EXTT6=
EXTT7=
EXTT8=
EXTT9=
EXTT10=
EXTT11=
EXTT12=
PLAYORDER=
